# xmcd
#
# Track frame offsets:
#	150
#	10912
#	30562
#	45937
#	60825
#	71800
#	83887
#	103662
#	118325
#	140937
#	156987
#	170587
#	185650
#	202050
#	214100
#
# Disc length: 3016 seconds
#
# Revision: 0
# Processed by: cddbd v1.4PL0 Copyright (c) Steve Scherf et al.
# Submitted via: MusicWizard 6.0.0
#
DISCID=dc0bc60f
DTITLE=Various Artist - Nice Price Country
DYEAR=1900
DGENRE=Country
TTITLE0=Johnny Cash - Daddy Sang Bass
TTITLE1=Marty Robbins - El Paso
TTITLE2=Ricky Van Shelton - I'm S Simple Man
TTITLE3=Meerle Haggard - A Friend In California
TTITLE4=Collin Raye - Ervery Second
TTITLE5=Charlie Rich - Rolling' With The Flow
TTITLE6=Mary-Chapin Carpenter - Down At The Twist And Shout
TTITLE7=Rosanne Cash - Seven Year Ache
TTITLE8=Joe Diffie - Third Rock From The Sun
TTITLE9=Patty Loveless - Blame It On Your Heart
TTITLE10=Waylon Jennings, Willie Nelson, Johnny Cash, Kris Kristofferson - Highwayman
TTITLE11=David Allen Coe - Willie, Waylon And Me
TTITLE12=Exile - Hang On To Your Heart
TTITLE13=Tammy Wynette - Stand By Your Man
TTITLE14=Tanya Tucker - Your Are So Beautiful
EXTD=
EXTT0=
EXTT1=
EXTT2=
EXTT3=
EXTT4=
EXTT5=
EXTT6=
EXTT7=
EXTT8=
EXTT9=
EXTT10=
EXTT11=
EXTT12=
EXTT13=
EXTT14=
PLAYORDER=
